<svg xmlns="http://www.w3.org/2000/svg" xmlns:xlink="http://www.w3.org/1999/xlink" version="1.1" width="256" height="256" viewBox="0 0 256 256" xml:space="preserve">
  <defs></defs>
  <!-- Green circle background -->
  <circle cx="128" cy="128" r="128" fill="#1abc54"/>
  <g style="stroke: none; stroke-width: 0; fill-rule: nonzero;" transform="translate(1.4065934065934016 1.4065934065934016) scale(2.81 2.81)">
    <!-- Play button with green outline and black fill -->
    <path d="M 45 0 C 20.187 0 0 20.187 0 45 c 0 24.813 20.187 45 45 45 c 24.813 0 45 -20.187 45 -45 C 90 20.187 69.813 0 45 0 z M 61.806 47.026 l -12.91 7.453 l -12.91 7.453 c -1.559 0.9 -3.508 -0.225 -3.508 -2.026 V 45 V 30.093 c 0 -1.801 1.949 -2.926 3.508 -2.026 l 12.91 7.453 l 12.91 7.453 C 63.366 43.875 63.366 46.125 61.806 47.026 z" style="fill: #1abc54;"/>
    <!-- Inner black part of play button -->
    <path d="M 61.806 47.026 l -12.91 7.453 l -12.91 7.453 c -1.559 0.9 -3.508 -0.225 -3.508 -2.026 V 45 V 30.093 c 0 -1.801 1.949 -2.926 3.508 -2.026 l 12.91 7.453 l 12.91 7.453 C 63.366 43.875 63.366 46.125 61.806 47.026 z" style="fill: black;"/>
  </g>
</svg>
